<?xml version="1.0" encoding="utf-8"?>
<!-- Generator: Adobe Illustrator 19.2.1, SVG Export Plug-In . SVG Version: 6.00 Build 0)  -->
<svg version="1.1" id="layer" xmlns="http://www.w3.org/2000/svg" xmlns:xlink="http://www.w3.org/1999/xlink" x="0px" y="0px"
	 viewBox="0 0 652 652" style="enable-background:new 0 0 652 652;" xml:space="preserve">
<style type="text/css">
	.st0{fill:#000249;}
</style>
<g>
	<path class="st0" d="M613.9,331.3v-29.5c0-9.8,0.2-20.4-7.3-28.4c-9.5-10.2-27.9-15.6-49.5-11.3c-9.3,1.8-17.6,5.2-24.5,9.5h-17.3
		l15.2,20.5c9.2-5.9,20.4-10,29-10.5c12.8-0.8,22.8,5.3,22.8,16.3c-8.3-5.5-19.4-7.9-30.9-6c-21.7,3.6-36.8,21.3-33.8,39.4
		c3,18.1,23,29.9,44.6,26.3c9.4-1.6,17.5-5.8,23.5-11.5l3.1,9.4h31.9L613.9,331.3z M563.8,337.9c-8.9,0.5-16.4-5.8-16.9-14.2
		c-0.5-8.3,6.3-15.5,15.2-16c8.9-0.5,16.4,5.8,16.9,14.2C579.4,330.3,572.7,337.4,563.8,337.9 M259.8,355.3h-46.5L186,312.4v42.9
		h-39.1V239.2l-16.1-18.8H186v72.9l18.5-27.4h42.7l-32.2,29.4L259.8,355.3z M80.7,248.8c-33.2,0-60.1,24.3-60.1,54.4
		c0,30,26.9,54.4,60.1,54.4c33.2,0,60.1-24.3,60.1-54.4C140.8,273.1,113.9,248.8,80.7,248.8 M80.7,327.9
		c-14.1,0-25.5-11.1-25.5-24.8c0-13.7,11.4-24.8,25.5-24.8c14.1,0,25.5,11.1,25.5,24.8C106.2,316.9,94.8,327.9,80.7,327.9
		 M510.6,333.2v-45.3c0-12-8.4-22.9-26.2-22.9c-10.5,0-19.8,3.9-25.7,9.9c-5.9-6-15.2-9.9-25.7-9.9c-10.8,0-20.4,4.1-26.2,10.5
		l-6.2-9.4h-42l11.4,16.1v62.6c-1.6,0.9-3.3,1.4-5.3,1.4c-5.9,0-10.7-4.8-10.7-10.7V266h-40.2v78.6c-1.6,0.9-3.5,1.5-5.6,1.5
		c-6.2,0-11.3-5-11.3-11.3V266h-49.7l10.1,16.1c0,0,0,38.2,0,50.3c0,12.1,12,23,23.4,23h237.1L510.6,333.2z M423.4,337.8
		c0,4.6-3.7,8.3-8.3,8.3c-4.6,0-8.3-3.7-8.3-8.3v-40.6c0-4.6,3.7-8.3,8.3-8.3c4.6,0,8.3,3.7,8.3,8.3V337.8z M475.3,337.8
		c0,4.6-3.7,8.3-8.3,8.3s-8.3-3.7-8.3-8.3v-40.6c0-4.6,3.7-8.3,8.3-8.3s8.3,3.7,8.3,8.3V337.8z"/>
	<rect x="29.3" y="389.1" class="st0" width="8.5" height="33.8"/>
	<rect x="188.8" y="389.1" class="st0" width="8.5" height="33.8"/>
	<rect x="515.9" y="389.1" class="st0" width="8.5" height="33.8"/>
	<rect x="401.9" y="389.1" class="st0" width="8.5" height="33.8"/>
	<polygon class="st0" points="391.8,396.6 394,389.1 359.4,389.1 359.4,423 367.9,423 367.9,409.8 389.5,409.8 391.7,402.3 
		367.9,402.3 367.9,396.6 	"/>
	<polygon class="st0" points="263.3,415.5 263.3,409.8 282.5,409.8 284.7,402.3 263.3,402.3 263.3,396.6 284.8,396.6 287,389.1 
		254.9,389.1 254.9,423 285.6,423 287.8,415.5 	"/>
	<polygon class="st0" points="78.3,389.1 78.3,411.5 57.2,389.1 48.7,389.1 48.7,423 57.2,423 57.2,400.6 78.3,423 86.8,423 
		86.8,389.1 	"/>
	<polygon class="st0" points="565.4,389.1 565.4,411.3 545.1,389.1 536.6,389.1 536.6,423 545.1,423 545.1,400.8 565.4,423 
		573.9,423 573.9,389.1 	"/>
	<path class="st0" d="M169.4,389.1h-25.9V423h8.5v-13.2h17.4c5.7,0,10.3-4.6,10.3-10.3C179.7,393.8,175.1,389.1,169.4,389.1
		 M168.6,402.3H152v-5.7h16.6c1.6,0,2.9,1.3,2.9,2.9C171.5,401,170.2,402.3,168.6,402.3"/>
	<path class="st0" d="M235.1,409.8h0.5c5.7,0,10.3-4.6,10.3-10.3c0-5.7-4.6-10.3-10.3-10.3h-25.9V423h8.5v-13.2h5.8l13.7,13.2h11.1
		L235.1,409.8z M218.2,402.3v-5.7h16.6c1.6,0,2.9,1.3,2.9,2.9c0,1.6-1.3,2.9-2.9,2.9H218.2z"/>
	<path class="st0" d="M123.5,402.3h-16.2c-1.6,0-2.9-1.3-2.9-2.9c0-1.6,1.3-2.9,2.9-2.9h24.4l2.2-7.4h-27.4
		c-5.7,0-10.3,4.6-10.3,10.3c0,5.7,4.6,10.3,10.3,10.3h16.2c1.6,0,2.9,1.3,2.9,2.9c0,1.6-1.3,2.9-2.9,2.9H98.3l-2.2,7.4h27.4
		c5.7,0,10.3-4.6,10.3-10.3C133.9,406.9,129.2,402.3,123.5,402.3"/>
	<path class="st0" d="M447.6,402.3h-16.2c-1.6,0-2.9-1.3-2.9-2.9c0-1.6,1.3-2.9,2.9-2.9h24.4l2.2-7.4h-27.4
		c-5.7,0-10.3,4.6-10.3,10.3c0,5.7,4.6,10.3,10.3,10.3h16.2c1.6,0,2.9,1.3,2.9,2.9c0,1.6-1.3,2.9-2.9,2.9h-24.4l-2.2,7.4h27.4
		c5.7,0,10.3-4.6,10.3-10.3C458,406.9,453.3,402.3,447.6,402.3"/>
	<polygon class="st0" points="495,389.1 495,402.3 476.4,402.3 476.4,389.1 467.9,389.1 467.9,423 476.4,423 476.4,409.8 495,409.8 
		495,423 503.5,423 503.5,389.1 	"/>
	<path class="st0" d="M316.2,389.1h-19.6v33.8h19.6c8.1,0,14.7-6.6,14.7-14.7v-4.4C331,395.8,324.3,389.1,316.2,389.1 M322.5,407.3
		c0,4.5-3.7,8.2-8.2,8.2h-9.2v-18.9h9.2c4.5,0,8.2,3.7,8.2,8.2V407.3z"/>
	<path class="st0" d="M617.8,402.3H602l-2.2,7.4h9.6v5.7h-11.5c-4.2,0-7.6-3.4-7.6-7.6v-3.7c0-4.2,3.4-7.6,7.6-7.6h17.8l2.2-7.4
		h-21.4c-8.1,0-14.7,6.6-14.7,14.7v4.4c0,8.1,6.6,14.7,14.7,14.7h21.4v0V402.3z"/>
</g>
</svg>
